<svg width="24" height="25" viewBox="0 0 24 25" fill="none" xmlns="http://www.w3.org/2000/svg">
<path d="M9.52374 12.8918C9.39143 13.0758 9.25912 13.2599 9.12393 13.4383C8.98874 13.6195 8.85067 13.7949 8.70973 13.9675C8.25527 14.5313 7.77204 15.0577 7.26004 15.5294C7.1795 15.607 7.09609 15.6818 7.0098 15.7566C6.65313 16.0701 6.2792 16.3549 5.89665 16.6051C5.89665 16.6051 5.71256 16.7144 5.59463 16.7835C5.58887 16.7835 5.586 16.7864 5.58025 16.7892C5.56011 16.8007 5.53998 16.8094 5.51984 16.8209C5.51697 16.8209 5.51409 16.8237 5.51121 16.8237C5.39328 16.8813 5.26672 16.9388 5.17468 16.9331C5.14591 16.9331 5.12003 16.9158 5.09702 16.8985L0.618516 13.654C0.437305 13.5217 0.468945 13.2398 0.67892 13.1564L1.88124 12.6588L6.75956 10.6482L9.48347 12.8572L9.52374 12.8918Z" fill="#068CFC" stroke="#004A88" stroke-linecap="round" stroke-linejoin="round"/>
<path d="M14.1202 3.18115C14.1144 3.20129 14.0972 3.26169 14.0655 3.35949C14.0598 3.37962 14.054 3.39976 14.0454 3.42277C14.0023 3.56659 13.9361 3.77081 13.8498 4.02105C13.8124 4.1246 13.775 4.23965 13.7319 4.36046C13.6887 4.48415 13.6427 4.61358 13.5938 4.75165C13.5507 4.87245 13.5047 4.99614 13.4558 5.12845C13.4471 5.14571 13.4414 5.16584 13.4356 5.18598C13.4069 5.26076 13.3752 5.33843 13.3465 5.41896C13.1969 5.81303 13.0243 6.24448 12.8345 6.70758C12.7856 6.82263 12.7367 6.93768 12.6849 7.05562C12.6561 7.12752 12.6245 7.19943 12.5929 7.27134C12.59 7.2771 12.5871 7.28285 12.5842 7.2886C12.4634 7.57336 12.3311 7.86387 12.1959 8.16014C12.1844 8.1889 12.17 8.21479 12.1614 8.2378C12.0809 8.40463 12.0032 8.57146 11.9198 8.74404C11.8651 8.8591 11.8076 8.97415 11.7501 9.08921C11.7012 9.19275 11.6494 9.2963 11.5948 9.39985C11.543 9.50628 11.4883 9.6127 11.4337 9.71625C11.2956 9.98376 11.1518 10.2513 11.0022 10.5188C10.9274 10.6539 10.8527 10.7863 10.775 10.9215C10.6197 11.189 10.4615 11.4565 10.2975 11.7211C10.1738 11.9195 10.0473 12.118 9.91783 12.3107C9.7884 12.5063 9.65608 12.699 9.52377 12.8918L9.4835 12.8572L6.75958 10.6482L6.8056 10.6281C6.84875 10.6108 6.88614 10.582 6.91778 10.5446C7.71454 9.56668 8.50266 8.31259 9.74813 7.91277C10.0617 7.8121 10.2515 7.78621 10.5478 7.605C11.7501 6.8744 12.8086 5.34418 13.5564 4.15624C13.7089 3.91175 13.8901 3.57809 14.0943 3.23005C14.1029 3.21567 14.1087 3.19553 14.1202 3.18115Z" fill="#068CFC" stroke="#004A88" stroke-linecap="round" stroke-linejoin="round"/>
<path d="M23.5 19.1248C23.0915 18.9091 22.7866 18.5438 22.4501 18.2389C21.9755 17.8103 21.4779 17.3328 20.986 16.9301C20.3906 16.4383 19.6485 15.9694 18.8489 16.0183C17.126 16.119 15.5152 18.4776 14.4739 19.7058C13.4097 20.9628 12.1642 22.3032 10.5304 22.7318C10.3981 22.7663 10.2629 22.6944 10.2083 22.5707L8.7356 19.1277C8.59178 18.8487 8.43933 18.5323 8.26387 18.2188C7.71449 17.2293 6.96951 16.2858 5.74418 16.7173C5.70391 16.7317 5.65213 16.7547 5.5946 16.7834C5.71254 16.7144 5.89662 16.6051 5.89662 16.6051C6.27918 16.3549 6.65311 16.0701 7.00978 15.7566C7.09607 15.6818 7.17948 15.607 7.26002 15.5294C7.77201 15.0576 8.25524 14.5313 8.70971 13.9675C8.85065 13.7949 8.98872 13.6194 9.1239 13.4382C9.25909 13.2599 9.39141 13.0758 9.52372 12.8917C9.65891 12.7019 9.78835 12.5063 9.91778 12.3107C10.0472 12.118 10.1738 11.9195 10.2975 11.721C10.4643 11.4535 10.6225 11.1889 10.7749 10.9214C10.8526 10.7862 10.9274 10.6539 11.0022 10.5187C11.1517 10.2512 11.2956 9.98372 11.4336 9.71622C11.4883 9.61267 11.5429 9.50624 11.5947 9.40269C11.6494 9.29627 11.7011 9.19272 11.75 9.09205C11.8076 8.97411 11.8651 8.85906 11.9197 8.74401C12.0031 8.57142 12.0808 8.40459 12.1613 8.23777C12.17 8.21475 12.1844 8.18887 12.1959 8.1601C12.3311 7.86384 12.4634 7.57333 12.5842 7.28857C12.587 7.28281 12.5899 7.27706 12.5928 7.27131C12.6244 7.1994 12.6561 7.12749 12.6848 7.05558C12.7366 6.93765 12.7855 6.81972 12.8344 6.70754C13.0243 6.24444 13.1968 5.81299 13.3464 5.41893C13.378 5.33839 13.4068 5.26073 13.4356 5.18594C13.4413 5.16581 13.4471 5.14567 13.4557 5.12842C13.5046 4.9961 13.5506 4.87242 13.5938 4.75161C13.6427 4.61355 13.6887 4.48411 13.7318 4.36043C13.7779 4.23674 13.8153 4.12456 13.8498 4.02101C13.9361 3.77077 14.0022 3.56655 14.0454 3.42273C14.054 3.39972 14.0597 3.37959 14.0655 3.35945C14.0971 3.26165 14.1144 3.20125 14.1202 3.18112C14.123 3.18112 14.123 3.17536 14.123 3.17536C14.4912 2.54544 14.9169 1.881 15.3484 1.625C16.3234 1.04398 17.1921 2.63748 17.566 3.34795C18.636 5.37291 19.2631 7.73728 20.0109 9.90318C20.5431 11.4507 21.0982 12.9981 21.6706 14.5313C21.9582 15.305 22.2516 16.0759 22.5565 16.841C22.8585 17.6061 23.1749 18.3712 23.5 19.1248Z" fill="#F57729" stroke="#923800" stroke-linecap="round" stroke-linejoin="round"/>
</svg>
